HIERARCHY
ROOT SpineBase
{
  OFFSET 0.000000 0.000000 0.000000
  CHANNELS 6 Xposition Yposition Zposition Zrotation Xrotation Yrotation
  JOINT SpineMid
  {
    OFFSET 0.000000 28.460827 0.000000
    CHANNELS 3 Zrotation Xrotation Yrotation
    JOINT SpineShoulder
    {
      OFFSET -0.023363 21.139898 -0.855420
      CHANNELS 3 Zrotation Xrotation Yrotation
      JOINT Neck
      {
        OFFSET -0.030902 6.989683 -0.594534
        CHANNELS 3 Zrotation Xrotation Yrotation
        JOINT Head
        {
          OFFSET -2.714796 12.056989 1.171568
          CHANNELS 3 Zrotation Xrotation Yrotation
          End Site
          {
            OFFSET 0 0 0
          }
        }
      }
      JOINT ShoulderLeft
      {
        OFFSET -11.861855 -5.276669 8.012124
        CHANNELS 3 Zrotation Xrotation Yrotation
        JOINT ElbowLeft
        {
          OFFSET -4.415967 -29.552899 4.029122
          CHANNELS 3 Zrotation Xrotation Yrotation
          JOINT WristLeft
          {
            OFFSET 2.700323 -24.720849 4.113905
            CHANNELS 3 Zrotation Xrotation Yrotation
            JOINT HandLeft
            {
              OFFSET -2.405446 -3.680816 -6.551826
              CHANNELS 3 Zrotation Xrotation Yrotation
              JOINT HandTipLeft
              {
                OFFSET -0.161013 -1.740312 -1.034562
                CHANNELS 3 Zrotation Xrotation Yrotation
                End Site
                {
                  OFFSET 0 0 0
                }
              }
              JOINT ThumbLeft
              {
                OFFSET 1.170067 0.007030 -3.376182
                CHANNELS 3 Zrotation Xrotation Yrotation
                End Site
                {
                  OFFSET 0 0 0
                }
              }
            }
          }
        }
      }
      JOINT ShoulderRight
      {
        OFFSET 6.357036 -5.145057 -12.603063
        CHANNELS 3 Zrotation Xrotation Yrotation
        JOINT ElbowRight
        {
          OFFSET 5.379706 -24.076380 -3.091491
          CHANNELS 3 Zrotation Xrotation Yrotation
          JOINT WristRight
          {
            OFFSET -5.212955 -21.465706 -3.456737
            CHANNELS 3 Zrotation Xrotation Yrotation
            JOINT HandRight
            {
              OFFSET -1.066754 -3.141085 -0.101864
              CHANNELS 3 Zrotation Xrotation Yrotation
              JOINT HandTipRight
              {
                OFFSET -1.244465 -6.594578 0.352123
                CHANNELS 3 Zrotation Xrotation Yrotation
                End Site
                {
                  OFFSET 0 0 0
                }
              }
              JOINT ThumbRight
              {
                OFFSET -2.903973 1.550008 0.388599
                CHANNELS 3 Zrotation Xrotation Yrotation
                End Site
                {
                  OFFSET 0 0 0
                }
              }
            }
          }
        }
      }
    }
  }
  JOINT HipLeft
  {
    OFFSET -4.752499 -0.388656 1.098742
    CHANNELS 3 Zrotation Xrotation Yrotation
    JOINT KneeLeft
    {
      OFFSET 1.539033 -27.072019 8.449555
      CHANNELS 3 Zrotation Xrotation Yrotation
      JOINT AnkleLeft
      {
        OFFSET 6.641617 -31.274820 7.384817
        CHANNELS 3 Zrotation Xrotation Yrotation
        JOINT FootLeft
        {
          OFFSET -7.174571 -4.200804 -9.397958
          CHANNELS 3 Zrotation Xrotation Yrotation
          End Site
          {
            OFFSET 0 0 0
          }
        }
      }
    }
  }
  JOINT HipRight
  {
    OFFSET 3.915529 1.592481 -7.971329
    CHANNELS 3 Zrotation Xrotation Yrotation
    JOINT KneeRight
    {
      OFFSET 6.326136 -28.260851 4.197495
      CHANNELS 3 Zrotation Xrotation Yrotation
      JOINT AnkleRight
      {
        OFFSET 7.757623 -33.974025 9.679397
        CHANNELS 3 Zrotation Xrotation Yrotation
        JOINT FootRight
        {
          OFFSET -2.875265 -5.255122 -1.612548
          CHANNELS 3 Zrotation Xrotation Yrotation
          End Site
          {
            OFFSET 0 0 0
          }
        }
      }
    }
  }
}
MOTION
Frames: 13
Frame Time: 0.033333
26.610038 67.624104 348.359017 12.335924 -1.169164 38.510242 -0.872776 -0.494275 -37.800544 0.752377 -0.121062 0.589363 -11.840528 17.656098 2.393393 0.000000 0.000000 0.000000 11.957577 59.007933 -23.466140 31.462877 -74.463034 40.345060 42.965299 -62.646101 25.930213 -50.084848 57.781333 34.167453 0.000000 0.000000 0.000000 0.000000 0.000000 0.000000 -109.343934 14.185347 45.643537 -0.090510 -11.606255 -24.585787 17.335731 -10.716113 -12.853886 -7.176664 1.437476 -5.637068 0.000000 0.000000 0.000000 0.000000 0.000000 0.000000 -9.003891 8.547162 -37.709676 -5.872480 2.890159 -0.636414 7.720630 -4.977541 0.838797 0.000000 0.000000 0.000000 -2.420887 7.691739 -37.058765 3.377864 -6.353828 0.916354 -26.392338 37.038399 -7.529170 0.000000 0.000000 0.000000
26.406245 67.321671 347.308854 12.278655 -0.168597 37.411700 -0.759605 -0.575683 -36.811333 1.099378 -0.243403 0.643286 -12.231182 16.533359 2.214632 0.000000 0.000000 0.000000 16.270550 61.180873 -27.601967 16.693083 -83.375507 27.161467 49.816174 -60.552658 29.783840 -57.674176 63.555735 39.897921 0.000000 0.000000 0.000000 0.000000 0.000000 0.000000 -103.118869 16.414800 42.011208 -8.729923 -12.862381 -26.768344 14.349111 -11.223933 -14.061391 -5.301720 3.628660 -5.330531 0.000000 0.000000 0.000000 0.000000 0.000000 0.000000 -11.375404 5.839653 -36.784435 -4.942616 5.067581 -0.097903 6.891755 -4.728331 0.823952 0.000000 0.000000 0.000000 -5.298033 8.432690 -36.180824 7.761428 -6.991000 1.900692 -28.348833 37.831889 -7.301016 0.000000 0.000000 0.000000
25.801358 67.022676 346.651572 11.574801 0.393624 37.315292 -0.223120 -0.702711 -36.805657 1.005612 -0.227768 0.634997 -12.327527 15.163398 2.122044 0.000000 0.000000 0.000000 17.919016 61.656650 -28.831318 0.800434 -85.807711 11.666818 49.988588 -59.844542 27.714162 -55.000586 62.514396 37.512390 0.000000 0.000000 0.000000 0.000000 0.000000 0.000000 -95.291357 17.915748 37.481673 -15.907766 -12.802654 -26.689937 11.774391 -9.191509 -13.839746 -2.975681 0.583955 -7.374953 0.000000 0.000000 0.000000 0.000000 0.000000 0.000000 -11.348852 3.911175 -36.764957 -4.718734 5.928099 -0.007877 5.980286 -4.518805 0.895718 0.000000 0.000000 0.000000 -5.546117 8.814594 -36.149843 9.960709 -8.331124 2.386496 -33.311975 39.502144 -5.050086 0.000000 0.000000 0.000000
24.876433 66.738114 346.516753 10.292245 0.401292 38.995263 0.508092 -0.768004 -38.546413 0.640490 -0.068875 0.561841 -11.557921 13.920848 2.055154 0.000000 0.000000 0.000000 14.987276 59.244525 -25.130074 16.019854 -80.233097 26.243406 41.504083 -60.359670 17.024147 -47.776428 54.452124 33.539117 0.000000 0.000000 0.000000 0.000000 0.000000 0.000000 -85.951286 18.907959 32.774442 -21.554193 -12.438292 -25.204896 7.826949 -7.310755 -13.228026 -1.089364 -3.305793 -9.751075 0.000000 0.000000 0.000000 0.000000 0.000000 0.000000 -9.285356 3.345516 -38.363637 -4.684425 5.157217 -0.242156 4.895057 -4.192306 1.239181 0.000000 0.000000 0.000000 -3.129933 8.778282 -37.729818 9.858893 -10.102663 2.358459 -30.472772 38.489551 -6.384700 0.000000 0.000000 0.000000
23.901343 66.698654 346.325854 8.909090 0.551785 42.473828 1.025986 -1.002182 -42.077111 0.215850 0.080942 0.476296 -11.100189 12.937700 2.177648 0.000000 0.000000 0.000000 19.933890 65.047578 -30.979405 81.163026 -85.626980 90.371489 31.828682 -58.037965 -6.942954 -48.282265 43.753972 41.083444 0.000000 0.000000 0.000000 0.000000 0.000000 0.000000 -74.580337 19.134366 27.122731 -26.515980 -10.495071 -21.525001 3.434380 -7.553120 -13.125515 2.406633 -4.502786 -10.573153 0.000000 0.000000 0.000000 0.000000 0.000000 0.000000 -7.155827 3.153089 -41.805761 -4.379289 4.083115 -0.414307 3.737833 -3.930873 1.688588 0.000000 0.000000 0.000000 -1.185837 6.882038 -41.223306 9.172226 -10.134621 2.266957 -28.355836 37.418138 -7.248330 0.000000 0.000000 0.000000
22.988014 66.823246 346.209335 7.428079 0.557021 46.217055 1.328473 -1.124002 -45.871299 -0.285527 0.227007 0.369071 -9.671788 11.804807 2.173795 0.000000 0.000000 0.000000 30.427287 72.334669 -42.727163 150.997217 -76.481758 158.128362 26.225050 -55.616760 -25.336634 -45.872818 30.808049 50.101725 0.000000 0.000000 0.000000 0.000000 0.000000 0.000000 -61.937415 18.305758 21.281667 -31.188862 -7.879463 -16.855306 1.672620 -10.332651 -13.594453 3.020260 -4.090623 -10.283629 0.000000 0.000000 0.000000 0.000000 0.000000 0.000000 -4.994967 3.084082 -45.559640 -3.888920 3.059856 -0.464801 2.645213 -3.907870 2.222498 0.000000 0.000000 0.000000 1.287789 5.193319 -44.808280 7.996972 -10.904367 1.989527 -26.966984 36.492826 -7.426469 0.000000 0.000000 0.000000
22.092339 67.149307 346.166507 5.996586 0.512653 49.564883 1.299454 -1.034555 -49.279335 -0.767667 0.305991 0.255610 -8.370648 10.406626 2.196590 0.000000 0.000000 0.000000 30.389607 70.871242 -39.729219 161.759172 -78.507908 169.427770 24.500882 -13.538105 -62.353727 -11.467266 -11.478909 64.886038 0.000000 0.000000 0.000000 0.000000 0.000000 0.000000 -48.712738 17.134896 16.204239 -34.691869 -7.000764 -13.177474 0.806445 -9.791645 -12.131318 3.083944 -7.498903 -10.751262 0.000000 0.000000 0.000000 0.000000 0.000000 0.000000 -2.822986 2.916828 -48.902648 -3.469441 1.946836 -0.507001 1.640395 -3.964257 2.885151 0.000000 0.000000 0.000000 3.474705 3.040226 -47.904426 6.492017 -11.295261 1.644356 -26.533060 35.665985 -7.064949 0.000000 0.000000 0.000000
21.644712 67.564755 345.988048 4.830947 0.669339 51.800190 1.167053 -0.888368 -51.572209 -1.047188 0.480370 0.164312 -7.628975 8.569895 2.129293 0.000000 0.000000 0.000000 38.814216 74.191692 -47.817118 167.349581 -72.172343 173.822024 27.706554 -3.641480 -65.545373 -1.322728 -20.168471 70.821493 0.000000 0.000000 0.000000 0.000000 0.000000 0.000000 -37.554992 14.764423 11.789537 -36.084195 -7.170831 -9.886773 2.380337 -6.439586 -9.628651 5.215438 -13.599207 -10.578765 0.000000 0.000000 0.000000 0.000000 0.000000 0.000000 -2.212482 2.786027 -51.359544 -2.254497 1.542958 -0.204755 0.783867 -3.924596 3.294782 0.000000 0.000000 0.000000 4.366412 1.004685 -49.978978 5.387186 -10.858434 1.400336 -26.587061 35.149920 -6.650187 0.000000 0.000000 0.000000
21.618629 68.122895 345.617490 3.957017 1.021822 53.321296 0.840855 -0.578787 -53.154181 -1.167639 0.568183 0.095069 -7.013776 6.600371 1.974392 0.000000 0.000000 0.000000 51.801969 77.477647 -60.978939 169.332858 -65.191440 174.195975 24.301948 -21.403006 -48.294779 -21.351353 -2.432444 55.735568 0.000000 0.000000 0.000000 0.000000 0.000000 0.000000 -26.864879 12.181130 8.122906 -35.722147 -7.322908 -6.917454 3.344602 -3.384392 -7.542940 2.664454 -13.895736 -8.445580 0.000000 0.000000 0.000000 0.000000 0.000000 0.000000 -3.184079 2.562977 -53.285350 -0.620071 2.007045 0.292255 0.105396 -3.836501 4.056495 0.000000 0.000000 0.000000 4.341861 -0.093752 -51.478445 5.279036 -10.494572 1.356724 -27.941459 34.728700 -5.564595 0.000000 0.000000 0.000000
21.938933 68.596170 345.094504 3.368377 1.477302 53.386994 0.393578 -0.108674 -53.281946 -1.057135 0.489638 0.055485 -7.176522 4.884016 1.865948 0.000000 0.000000 0.000000 41.182932 74.633771 -47.885864 175.847826 -70.393025 -178.307451 25.752075 -17.448922 -37.155868 -22.721631 -2.349495 47.453624 0.000000 0.000000 0.000000 0.000000 0.000000 0.000000 -17.843384 9.821775 5.485417 -33.224663 -8.009358 -4.719038 5.881175 -4.123982 -6.050966 -3.592840 -4.499973 -4.967167 0.000000 0.000000 0.000000 0.000000 0.000000 0.000000 -4.194269 3.137279 -53.852883 1.196917 1.738358 0.784110 -0.350297 -3.683289 4.942825 0.000000 0.000000 0.000000 3.651241 -0.697247 -51.655796 5.549354 -10.072393 1.370732 -30.342057 34.712074 -3.884654 0.000000 0.000000 0.000000
22.967356 68.906735 344.520814 3.392413 1.861989 51.438629 -0.128879 0.417903 -51.381544 -0.657742 0.268381 0.068161 -7.490551 4.034027 1.756707 0.000000 0.000000 0.000000 41.160556 74.614870 -47.575492 -179.732945 -69.665396 -174.154700 26.439609 -6.552908 -34.973742 -18.276413 -8.740005 43.224347 0.000000 0.000000 0.000000 0.000000 0.000000 0.000000 -11.929841 8.200732 3.855054 -26.776076 -9.305899 -3.330615 4.150896 -4.496977 -4.172812 -4.270678 3.399322 -2.978413 0.000000 0.000000 0.000000 0.000000 0.000000 0.000000 -6.801030 4.103574 -52.605327 3.561098 2.228933 1.457006 -0.489767 -3.385729 5.667983 0.000000 0.000000 0.000000 1.774189 -0.006030 -50.126471 6.843464 -9.329814 1.564300 -33.209553 35.090797 -2.034712 0.000000 0.000000 0.000000
23.995705 68.680682 344.249184 3.224697 1.794604 51.060409 -0.221366 0.702905 -51.022836 -0.281005 0.105288 0.089657 -8.039787 3.599869 1.698003 0.000000 0.000000 0.000000 41.438485 74.713741 -47.812275 -175.581282 -69.551495 -170.140535 27.136359 -4.175048 -31.588076 -19.483983 -7.136218 39.443624 0.000000 0.000000 0.000000 0.000000 0.000000 0.000000 -6.103903 6.835855 2.415374 -22.057667 -9.426866 -1.989774 4.444459 -7.353567 -2.129864 -6.774489 11.390534 -2.223534 0.000000 0.000000 0.000000 0.000000 0.000000 0.000000 -7.720885 5.814325 -52.752960 6.123329 0.747108 1.913407 -1.009417 -2.254624 6.265103 0.000000 0.000000 0.000000 0.400860 -0.033264 -50.131197 7.454724 -8.211855 1.636566 -36.565085 35.829688 0.073578 0.000000 0.000000 0.000000
24.776712 68.609154 344.122343 2.673239 1.598618 49.550534 -0.146928 0.688150 -49.518104 -0.331114 0.030797 0.064055 -8.446425 3.346267 1.759875 0.000000 0.000000 0.000000 42.278812 74.902122 -48.142436 -172.079016 -69.703669 -166.693708 29.359481 15.705500 -39.691826 -6.839441 -27.270976 44.434774 0.000000 0.000000 0.000000 0.000000 0.000000 0.000000 -1.368907 5.912908 1.505525 -16.707038 -9.796033 -1.091896 5.324064 -8.606603 -0.026259 -10.353046 16.169696 -2.070075 0.000000 0.000000 0.000000 0.000000 0.000000 0.000000 -7.817894 6.616499 -51.569248 7.418000 0.335697 2.309112 -1.056789 -2.221812 6.306987 0.000000 0.000000 0.000000 0.106550 -0.848040 -48.813701 6.945449 -7.261656 1.487056 -39.995051 36.880994 2.248782 0.000000 0.000000 0.000000
